<?xml version="1.0" encoding="UTF-8" standalone="no"?>
<!-- Created with Inkscape (http://www.inkscape.org/) -->

<svg
   width="510.28702"
   height="510.28702"
   viewBox="0 0 135.01344 135.01344"
   version="1.1"
   id="svg5"
   xml:space="preserve"
   sodipodi:docname="mailer_square.svg"
   inkscape:version="1.2.1 (9c6d41e410, 2022-07-14)"
   inkscape:export-filename="mailer_128.png"
   inkscape:export-xdpi="24.080566"
   inkscape:export-ydpi="24.080566"
   xmlns:inkscape="http://www.inkscape.org/namespaces/inkscape"
   xmlns:sodipodi="http://sodipodi.sourceforge.net/DTD/sodipodi-0.dtd"
   xmlns="http://www.w3.org/2000/svg"
   xmlns:svg="http://www.w3.org/2000/svg"><sodipodi:namedview
     id="namedview36"
     pagecolor="#ffffff"
     bordercolor="#000000"
     borderopacity="0.25"
     inkscape:showpageshadow="2"
     inkscape:pageopacity="0.0"
     inkscape:pagecheckerboard="0"
     inkscape:deskcolor="#d1d1d1"
     inkscape:document-units="mm"
     showgrid="false"
     inkscape:zoom="1.1351507"
     inkscape:cx="92.058261"
     inkscape:cy="273.97243"
     inkscape:window-width="1920"
     inkscape:window-height="1017"
     inkscape:window-x="-8"
     inkscape:window-y="-8"
     inkscape:window-maximized="1"
     inkscape:current-layer="layer1"
     showguides="true"><sodipodi:guide
       position="25.834777,96.282166"
       orientation="1,0"
       id="guide228"
       inkscape:locked="false" /><sodipodi:guide
       position="109.17853,93.150701"
       orientation="1,0"
       id="guide230"
       inkscape:locked="false" /><sodipodi:guide
       position="135.0133,116.7191"
       orientation="1,0"
       id="guide1010"
       inkscape:locked="false" /><sodipodi:guide
       position="8.3909564,135.01344"
       orientation="0,-1"
       id="guide2492"
       inkscape:locked="false" /><sodipodi:guide
       position="0,126.15632"
       orientation="1,0"
       id="guide2494"
       inkscape:locked="false" /><sodipodi:guide
       position="93.232848,0"
       orientation="0,-1"
       id="guide2496"
       inkscape:locked="false" /><sodipodi:guide
       position="67.506658,67.881616"
       orientation="0,-1"
       id="guide2552"
       inkscape:locked="false" /><sodipodi:guide
       position="67.506658,67.881616"
       orientation="1,0"
       id="guide2554"
       inkscape:locked="false" /></sodipodi:namedview><defs
     id="defs2"><linearGradient
       id="linearGradient7520"><stop
         style="stop-color:#fd0202;stop-opacity:1;"
         offset="0"
         id="stop7518" /></linearGradient><clipPath
       clipPathUnits="userSpaceOnUse"
       id="clipPath17633"><rect
         style="fill:none;fill-opacity:1;fill-rule:nonzero;stroke:#29d620;stroke-width:39.4355;stroke-linecap:round;stroke-miterlimit:4;stroke-dasharray:none;stroke-opacity:1"
         id="rect17635"
         width="788.71051"
         height="525.80695"
         x="-407.45584"
         y="-282.05252"
         ry="3.9659292e-07"
         rx="3.9659292e-07" /></clipPath></defs><g
     id="layer1"
     transform="translate(-66.504852,-22.496187)"><g
       id="g2490"
       transform="translate(-5.3694422e-6,8.4652915)"><path
         style="fill:none;fill-opacity:1;fill-rule:nonzero;stroke:#000000;stroke-width:3.96875;stroke-dasharray:none;stroke-opacity:1"
         d="m 140.62609,84.336351 33.07292,26.458329"
         id="path12142" /><g
         id="g17183"
         transform="matrix(0.10063896,0,0,0.10063896,135.32994,86.263481)">
	
		
	
		
	
		
	
		<path
   fill="#d0b698"
   stroke="#000000"
   stroke-width="6"
   stroke-linecap="round"
   stroke-linejoin="round"
   stroke-miterlimit="10"
   d="m 37.701,180.366 c -6.229,0.655 -11.809,-3.871 -12.465,-10.108 -0.656,-6.238 3.862,-11.825 10.091,-12.479 1.456,-0.153 2.872,-0.013 4.203,0.355 -0.407,-8.924 -0.016,-17.19 1.119,-24.897 -24.907,0.93 -36.32,15.463 -37.555,33.129 -1.31,18.742 11.141,37.468 34.561,39.105 3.651,0.255 6.895,0.049 9.774,-0.552 -2.455,-9.115 -4.338,-17.702 -5.655,-25.792 -1.234,0.647 -2.604,1.085 -4.073,1.239 z"
   id="path17139"
   style="fill:#819abb;fill-opacity:1" />
	<path
   d="m 35.327,157.778 c -6.229,0.655 -10.747,6.242 -10.091,12.479 0.656,6.237 6.237,10.763 12.465,10.108 1.469,-0.154 2.839,-0.592 4.073,-1.239 -1.204,-7.39 -1.942,-14.372 -2.244,-20.994 -1.331,-0.367 -2.747,-0.507 -4.203,-0.354 z"
   id="path17141" />
	
		<path
   fill="#d0b698"
   stroke="#000000"
   stroke-width="6"
   stroke-linecap="round"
   stroke-linejoin="round"
   stroke-miterlimit="10"
   d="m 309.592,37.468 c 0.511,-0.68 1.096,-1.317 1.774,-1.887 4.798,-4.025 11.957,-3.395 15.987,1.41 3.967,4.729 3.42,11.73 -1.172,15.788 5.61,5.714 11.18,11.979 16.583,18.841 1.701,-1.844 3.317,-4.046 4.827,-6.66 11.736,-20.332 3.176,-41.127 -13.096,-50.521 -14.119,-8.151 -30.859,-7.664 -44.898,8.169 1.848,1.18 3.665,2.401 5.448,3.66 4.725,3.335 9.604,7.07 14.547,11.2 z"
   id="path17143"
   style="fill:#819abb;fill-opacity:1" />
	<path
   d="m 327.354,36.992 c -4.03,-4.805 -11.189,-5.436 -15.987,-1.41 -0.679,0.57 -1.264,1.207 -1.774,1.887 5.49,4.587 11.059,9.677 16.59,15.312 4.591,-4.059 5.138,-11.061 1.171,-15.789 z"
   id="path17145" />
	
		
	
		<path
   fill="#d0b698"
   stroke="#000000"
   stroke-width="6"
   stroke-linecap="round"
   stroke-linejoin="round"
   stroke-miterlimit="10"
   d="m 420.393,238.421 c -2.082,-8.744 -4.426,-16.952 -7.021,-24.484 -6.519,-18.921 -14.621,-33.558 -24.152,-41.551 -9.144,-42.65 -26.687,-75.661 -46.455,-100.765 -5.403,-6.861 -10.973,-13.127 -16.583,-18.841 -5.531,-5.635 -11.1,-10.724 -16.59,-15.312 -4.943,-4.13 -9.822,-7.865 -14.546,-11.199 -1.783,-1.259 -3.601,-2.479 -5.448,-3.66 -38.035,-24.282 -89.932,-31.174 -159.703,9.577 -48.626,28.401 -82.414,54.617 -89.247,101.05 -1.134,7.708 -1.525,15.973 -1.119,24.897 0.302,6.622 1.041,13.604 2.244,20.994 1.317,8.089 3.201,16.676 5.655,25.792 2.433,9.035 5.425,18.587 9.033,28.736 12.141,34.149 34.259,66.99 46.802,85.997 12.709,19.258 24.75,54.917 26.631,90.017 1.416,26.414 -1.781,63.135 8.125,93.951 2.207,6.863 5.066,13.434 8.77,19.531 6.542,10.775 15.719,20.08 28.625,26.918 3.076,1.629 6.207,3.075 9.378,4.365 11.428,4.648 23.415,7.173 35.536,8.071 50.471,3.739 103.228,-20.578 127.21,-35.837 22.083,-14.049 41.403,-24.279 55.943,-43.031 5.742,-7.406 10.74,-16.139 14.866,-26.967 4.834,-12.688 8.474,-28.246 10.716,-47.902 6.42,-56.267 2.939,-121.584 -8.67,-170.347 z"
   id="path17149"
   clip-path="url(#clipPath17633)"
   style="fill:#819abb;fill-opacity:1" />
	
		<ellipse
   fill="#ffffff"
   stroke="#000000"
   stroke-width="6"
   stroke-linecap="round"
   stroke-linejoin="round"
   stroke-miterlimit="10"
   cx="235.646"
   cy="67.681"
   rx="52.200001"
   ry="51.299999"
   id="ellipse17151" />
	
		<ellipse
   fill="#ffffff"
   stroke="#000000"
   stroke-width="6"
   stroke-linecap="round"
   stroke-linejoin="round"
   stroke-miterlimit="10"
   cx="118.851"
   cy="127.081"
   rx="52.200001"
   ry="51.299999"
   id="ellipse17153" />
	<circle
   cx="263.996"
   cy="59.581001"
   r="16.200001"
   id="circle17155" />
	<circle
   fill="#ffffff"
   cx="272.09601"
   cy="60.480999"
   r="3.5999999"
   id="circle17157" />
	<circle
   cx="146.095"
   cy="116.281"
   r="16.200001"
   id="circle17159" />
	<circle
   fill="#ffffff"
   cx="154.196"
   cy="117.181"
   r="3.5999999"
   id="circle17161" />
	
		<path
   fill="#ffffff"
   stroke="#000000"
   stroke-width="6"
   stroke-linecap="round"
   stroke-linejoin="round"
   stroke-miterlimit="10"
   d="m 213.083,169.078 c -9.664,4.506 -9.3,9.495 -16.832,14.72 2.005,5.293 4.714,12.359 7.977,20.67 7.355,18.729 28.819,4.246 23.938,-6.716 -3.579,-8.041 -9.976,-22.408 -13.135,-29.504 -0.623,0.243 -1.268,0.513 -1.948,0.83 z"
   id="path17163" />
	
		<path
   fill="#ffffff"
   stroke="#000000"
   stroke-width="6"
   stroke-linecap="round"
   stroke-linejoin="round"
   stroke-miterlimit="10"
   d="m 238.975,164.35 c -11.064,4.464 -14.537,0.238 -23.943,3.898 3.159,7.096 9.556,21.463 13.135,29.504 4.881,10.962 30.008,4.701 21.009,-13.295 -4.086,-8.173 -7.59,-15.04 -10.201,-20.107 z"
   id="path17165" />
	
		
	
	
		<path
   fill="#ac967b"
   stroke="#000000"
   stroke-width="6"
   stroke-linecap="round"
   stroke-linejoin="round"
   stroke-miterlimit="10"
   d="m 241.202,134.614 c -5.883,-2.508 -11.642,-2.739 -18.45,-1.058 -1.165,6.392 -7.955,13.579 -17.718,17.926 -9.39,4.181 -18.893,4.561 -24.525,1.549 -6.176,4.299 -9.948,9.01 -11.901,15.435 -3.831,12.607 6.071,24.543 16.988,20.563 4.838,-1.764 8.174,-3.511 10.656,-5.232 7.532,-5.225 7.168,-10.214 16.832,-14.72 0.68,-0.317 1.325,-0.587 1.949,-0.83 9.406,-3.66 12.879,0.566 23.943,-3.898 2.062,-0.832 4.381,-1.959 7.059,-3.503 10.066,-5.805 7.288,-21.062 -4.833,-26.232 z"
   id="path17171"
   style="fill:#5879a4;fill-opacity:1" />
	<path
   d="m 205.034,151.482 c 9.763,-4.347 16.553,-11.534 17.718,-17.926 0.352,-1.932 0.196,-3.792 -0.554,-5.479 -3.234,-7.265 -16.163,-8.566 -28.878,-2.906 -12.714,5.661 -20.399,16.141 -17.165,23.405 0.846,1.9 2.359,3.388 4.354,4.454 5.632,3.012 15.135,2.633 24.525,-1.548 z"
   id="path17173" />
	
	
	
	
</g><rect
         style="fill:none;fill-opacity:1;stroke:#000000;stroke-width:3.96875;stroke-dasharray:none;stroke-opacity:1"
         id="rect111"
         width="79.375008"
         height="52.916672"
         x="94.324005"
         y="57.87801"
         ry="3.9659292e-07"
         rx="3.9659292e-07" /><path
         style="fill:none;fill-opacity:1;fill-rule:nonzero;stroke:#ffffff;stroke-width:10.5833;stroke-linecap:round;stroke-miterlimit:4;stroke-dasharray:none;stroke-opacity:1"
         d="M 75.576515,74.532581 H 98.094054"
         id="path12144-3-9" /><path
         style="fill:none;fill-opacity:1;fill-rule:nonzero;stroke:#ffffff;stroke-width:10.5833;stroke-linecap:round;stroke-miterlimit:4;stroke-dasharray:none;stroke-opacity:1"
         d="m 81.34264,84.336351 28.30966,-5e-6"
         id="path12144-3-6" /><path
         style="fill:none;fill-opacity:1;fill-rule:nonzero;stroke:#000000;stroke-width:3.96875;stroke-linecap:round;stroke-miterlimit:4;stroke-dasharray:none;stroke-opacity:1"
         d="m 81.34264,84.336351 28.30966,-5e-6"
         id="path12144-4" /><path
         style="fill:none;fill-opacity:1;fill-rule:nonzero;stroke:#ffffff;stroke-width:10.5833;stroke-linecap:round;stroke-miterlimit:4;stroke-dasharray:none;stroke-opacity:1"
         d="M 84.929518,94.048721 H 102.52751"
         id="path12144-3" /><path
         style="fill:none;fill-opacity:1;fill-rule:nonzero;stroke:#000000;stroke-width:3.96875;stroke-linecap:round;stroke-miterlimit:4;stroke-dasharray:none;stroke-opacity:1"
         d="M 84.929518,94.048721 H 102.52751"
         id="path12144-4-6" /><path
         style="fill:none;fill-opacity:1;fill-rule:nonzero;stroke:#000000;stroke-width:3.96875;stroke-linecap:round;stroke-miterlimit:4;stroke-dasharray:none;stroke-opacity:1"
         d="M 75.576515,74.532581 H 98.094054"
         id="path12144" /><path
         style="fill:none;fill-opacity:1;fill-rule:nonzero;stroke:#000000;stroke-width:3.96875;stroke-dasharray:none;stroke-opacity:1"
         d="M 94.324005,110.79468 127.39692,84.336351"
         id="path12057" /><path
         style="fill:none;fill-opacity:1;fill-rule:nonzero;stroke:#000000;stroke-width:3.96875;stroke-dasharray:none;stroke-opacity:1"
         d="m 94.324005,57.878011 39.687505,31.75 39.6875,-31.75"
         id="path4547" /></g></g></svg>
